<svg width="30" height="40" viewBox="0 0 30 40" fill="none" xmlns="http://www.w3.org/2000/svg">
<path d="M28 0H2C0.89543 0 0 0.89543 0 2V38C0 39.1046 0.89543 40 2 40H28C29.1046 40 30 39.1046 30 38V2C30 0.89543 29.1046 0 28 0Z" fill="#69C57F"/>
<path opacity="0.5" d="M22 29V26H19V29H22ZM22 30H19V33H22V30ZM8 29H14V26H8V29ZM8 30V33H14V30H8ZM15 29H18V26H15V29ZM15 30V33H18V30H15ZM22 25V22H19V25H22ZM8 25H14V22H8V25ZM15 25H18V22H15V25ZM22 21V18H8V21H14V18H15V21H18V18H19V21H22ZM7 17H23V34H7V17Z" fill="white"/>
<path fill-rule="evenodd" clip-rule="evenodd" d="M11.7 12C11.1133 12 10.6833 11.8767 10.41 11.63C10.1367 11.3767 10 10.9667 10 10.4V8.6C10 8.04 10.1367 7.63333 10.41 7.38C10.69 7.12667 11.12 7 11.7 7H12.99V8H11.74C11.4933 8 11.3067 8.05667 11.18 8.17C11.0533 8.28333 10.99 8.44333 10.99 8.65V10.35C10.99 10.5567 11.0533 10.7167 11.18 10.83C11.3067 10.9433 11.4933 11 11.74 11H12.99V12H11.7ZM18 7H19V10H20V7H21V10L20 12H19L18 10V7ZM16.61 11.69C16.87 11.4833 17 11.17 17 10.75V10.3C17 9.87333 16.8833 9.55333 16.65 9.34C16.4167 9.12 16.0767 9 15.63 9H15.48C15.34 9 15.2233 8.97333 15.13 8.9C15.0433 8.82667 15 8.71333 15 8.56V8.45C15 8.30333 15.05 8.19333 15.15 8.12C15.25 8.04 15.3833 8 15.55 8H17V7H15.5C15.0067 7 14.5933 7.1 14.34 7.3C14.0867 7.49333 14 7.81333 14 8.26V8.73C14 9.17 14.0733 9.49333 14.3 9.7C14.5333 9.9 14.7333 10 15.2 10H15.57C15.8567 10 16 10.15 16 10.45V10.55C16 10.6967 15.9533 10.81 15.86 10.89C15.7667 10.9633 15.63 11 15.45 11H14V12H15.5C15.9867 12 16.3567 11.8967 16.61 11.69Z" fill="white"/>
</svg>
