<svg width="30" height="40" viewBox="0 0 30 40" fill="none" xmlns="http://www.w3.org/2000/svg">
<path d="M28 0H2C0.89543 0 0 0.89543 0 2V38C0 39.1046 0.89543 40 2 40H28C29.1046 40 30 39.1046 30 38V2C30 0.89543 29.1046 0 28 0Z" fill="#69C57F"/>
<path opacity="0.5" d="M22 29V26H19V29H22ZM22 30H19V33H22V30ZM8 29H14V26H8V29ZM8 30V33H14V30H8ZM15 29H18V26H15V29ZM15 30V33H18V30H15ZM22 25V22H19V25H22ZM8 25H14V22H8V25ZM15 25H18V22H15V25ZM22 21V18H8V21H14V18H15V21H18V18H19V21H22ZM7 17H23V34H7V17Z" fill="white"/>
<path d="M10 12H9V10H10V9H9V7H10V8.5L11 9L12 8.5V7H13V9H12V10H13V12H12V10.5L11 10L10 10.5V12Z" fill="white"/>
<path d="M15.92 12C15.6933 12 15.3931 11.92 15.2198 11.76C15.0531 11.6 15 11.3467 15 11V6H14V5H16V10.7C16 10.8067 16.0267 10.8833 16.08 10.93C16.1333 10.9767 16.2233 11 16.35 11H17V12H15.92Z" fill="white"/>
<path d="M21 10.75C21 11.17 20.87 11.4833 20.61 11.69C20.3567 11.8967 19.9867 12 19.5 12H18V11H19.45C19.63 11 19.7667 10.9633 19.86 10.89C19.9533 10.81 20 10.6967 20 10.55V10.45C20 10.15 19.8567 10 19.57 10H19.2C18.7333 10 18.5333 9.9 18.3 9.7C18.0733 9.49333 18 9.17 18 8.73V8.26C18 7.81333 18.0867 7.49333 18.34 7.3C18.5933 7.1 19.0067 7 19.5 7H21V8H19.55C19.3833 8 19.25 8.04 19.15 8.12C19.05 8.19333 19 8.30333 19 8.45V8.56C19 8.71333 19.0433 8.82667 19.13 8.9C19.2233 8.97333 19.34 9 19.48 9H19.63C20.0767 9 20.4167 9.12 20.65 9.34C20.8833 9.55333 21 9.87333 21 10.3V10.75Z" fill="white"/>
</svg>
